<?xml version="1.0" standalone="no"?>
<!DOCTYPE svg PUBLIC "-//W3C//DTD SVG 20010904//EN"
 "http://www.w3.org/TR/2001/REC-SVG-20010904/DTD/svg10.dtd">
<svg version="1.0" xmlns="http://www.w3.org/2000/svg"
 width="500.000000pt" height="500.000000pt" viewBox="0 0 500.000000 500.000000"
 preserveAspectRatio="xMidYMid meet">

<g transform="translate(0.000000,500.000000) scale(0.100000,-0.100000)"
fill="#000000" stroke="none">
<path d="M2235 4485 c-802 -106 -1475 -705 -1673 -1490 -48 -189 -57 -271 -57
-495 0 -279 35 -480 125 -712 334 -865 1214 -1392 2125 -1273 573 75 1091 397
1410 875 160 241 270 527 317 820 17 112 17 468 0 580 -130 822 -730 1473
-1532 1661 -202 48 -500 62 -715 34z m595 -34 c405 -71 743 -241 1032 -520
328 -316 516 -672 594 -1126 25 -143 25 -462 0 -609 -53 -321 -179 -621 -367
-876 -80 -109 -300 -329 -409 -409 -250 -185 -537 -308 -846 -362 -185 -33
-483 -33 -668 0 -308 54 -596 177 -846 361 -110 81 -329 301 -413 415 -189
256 -322 582 -369 901 -19 129 -16 454 6 579 54 318 170 600 352 857 81 115
336 368 451 448 298 208 614 325 988 364 95 10 384 -3 495 -23z"/>
<path d="M2648 4303 c-30 -5 -27 4 -55 -166 l-17 -108 -33 126 c-17 69 -35
130 -38 135 -3 6 -31 10 -60 10 -49 0 -55 -3 -59 -22 -3 -13 -16 -75 -29 -138
l-24 -115 -12 60 c-7 33 -20 92 -30 130 -17 70 -17 70 -54 73 -22 2 -37 -1
-37 -7 0 -12 57 -274 66 -303 4 -15 17 -18 69 -18 42 0 64 4 68 13 3 7 13 61
22 120 10 60 21 104 25 100 4 -4 20 -56 35 -115 23 -88 31 -107 49 -112 30 -8
89 -7 102 2 6 4 21 67 33 140 22 139 26 203 14 201 -5 -1 -20 -4 -35 -6z"/>
<path d="M2766 4132 c-20 -81 -39 -154 -42 -163 -3 -13 4 -18 32 -24 43 -8 47
-4 63 72 8 33 17 53 24 50 7 -2 38 -10 70 -17 64 -15 64 -16 43 -97 l-14 -52
35 -12 c19 -6 36 -9 39 -6 6 5 69 246 77 293 6 29 3 32 -25 38 -17 3 -34 6
-38 6 -4 0 -13 -25 -20 -56 -8 -31 -19 -58 -26 -61 -7 -2 -40 3 -74 13 -54 15
-61 19 -56 38 13 45 18 104 10 108 -5 3 -21 8 -35 12 l-27 6 -36 -148z"/>
<path d="M3122 4024 c-40 -79 -72 -148 -72 -153 0 -9 230 -125 235 -119 8 10
26 50 23 53 -2 1 -30 16 -63 33 -93 47 -100 54 -85 83 7 13 14 26 16 28 2 2
37 -11 79 -30 64 -28 78 -31 85 -19 18 28 10 38 -57 75 -38 20 -69 38 -71 40
-6 5 21 55 30 55 5 0 40 -16 78 -35 38 -19 73 -35 78 -35 5 0 14 11 20 25 11
25 10 26 -106 84 l-118 59 -72 -144z"/>
<path d="M1683 4107 c-34 -16 -43 -26 -43 -47 0 -26 25 -239 35 -294 5 -28 4
-29 -14 -12 -17 16 -21 15 -67 -22 -27 -21 -54 -41 -60 -45 -7 -4 -45 34 -95
98 -46 58 -86 105 -89 105 -4 0 -17 -11 -30 -25 l-23 -25 63 -82 c35 -46 80
-104 100 -130 19 -26 37 -47 40 -47 6 -1 133 99 171 134 15 14 39 29 54 35 23
9 26 15 23 47 -3 35 -1 37 60 71 l63 35 29 -28 c27 -26 29 -26 60 -10 17 9 30
19 28 23 -7 16 -245 242 -254 241 -5 0 -28 -10 -51 -22z m127 -142 c16 -19 8
-28 -42 -49 -37 -15 -38 -15 -38 8 0 13 -3 45 -7 72 l-6 48 40 -31 c22 -18 46
-39 53 -48z"/>
<path d="M2045 4055 c-72 -20 -80 -25 -77 -46 1 -12 4 -24 5 -25 5 -5 198 52
198 59 -1 4 -1 14 -1 22 0 20 -28 18 -125 -10z"/>
<path d="M3410 3869 l-103 -131 29 -24 c16 -13 31 -23 34 -23 3 0 20 20 39 44
18 25 39 45 45 45 7 0 27 -15 45 -34 l33 -34 -28 -51 -29 -51 30 -24 30 -24
33 50 c26 39 33 57 28 79 -5 26 -3 29 20 29 14 0 34 5 45 10 26 15 52 68 45
95 -6 24 -73 89 -149 143 l-45 32 -102 -131z m171 0 c43 -34 49 -57 19 -84
-19 -17 -21 -17 -60 10 -23 16 -43 32 -46 36 -5 8 35 69 44 69 2 0 22 -14 43
-31z"/>
<path d="M1133 3685 c-46 -51 -83 -95 -83 -98 0 -2 56 -54 124 -115 l123 -111
69 77 c120 135 111 119 86 144 l-22 22 -64 -69 -64 -70 -28 27 -28 27 53 61
c52 60 53 61 35 82 -19 20 -19 20 -76 -43 l-58 -64 -26 27 -26 26 56 61 c31
33 56 65 56 69 0 9 -33 43 -41 41 -2 0 -41 -43 -86 -94z"/>
<path d="M1785 3090 c-391 -368 -711 -674 -713 -679 -3 -10 1403 -1344 1422
-1349 11 -2 1429 1329 1433 1345 1 7 -1410 1344 -1426 1351 -3 1 -326 -299
-716 -668z m1420 -24 l697 -659 -29 -27 c-15 -16 -331 -314 -702 -664 l-674
-635 -156 148 c-86 82 -178 168 -204 192 l-49 44 392 -3 392 -3 45 37 c44 36
44 37 41 93 -3 56 -3 56 -34 54 -26 -2 -34 3 -53 38 -28 49 -18 70 24 51 14
-7 30 -12 35 -12 14 0 11 46 -9 120 l-17 65 -64 -3 -65 -3 -67 90 c-66 88 -68
93 -68 149 0 58 0 58 -50 95 l-50 37 0 59 c0 52 3 61 25 75 14 9 25 23 25 31
0 7 -34 42 -76 76 -41 35 -80 72 -86 82 -17 33 -78 219 -78 240 0 10 9 30 20
44 l19 25 -24 49 c-14 26 -25 50 -25 53 0 3 45 44 100 91 55 48 100 95 100
104 0 19 -54 67 -110 97 -50 27 -157 24 -234 -6 -67 -26 -128 -76 -146 -121
-10 -24 -10 -190 0 -847 6 -449 15 -821 18 -827 8 -15 -56 46 -536 498 -238
225 -432 413 -430 418 5 14 1392 1319 1399 1317 4 -2 320 -299 704 -662z
m-697 -956 c10 0 42 -70 42 -93 0 -43 -58 -97 -103 -97 -43 0 -84 31 -95 73
-11 44 -4 72 25 101 28 29 55 35 98 24 16 -4 31 -8 33 -8z m-303 -440 c0 -31
-3 -35 -25 -35 -19 0 -26 6 -28 23 -5 36 5 54 30 50 19 -2 23 -9 23 -38z m75
30 c0 -5 -10 -11 -22 -11 l-23 -2 23 -4 c12 -2 22 -9 22 -14 0 -5 -10 -10 -22
-10 l-23 -2 23 -4 c30 -6 28 -23 -3 -23 -22 0 -25 4 -25 40 0 36 3 40 25 40
14 0 25 -4 25 -10z m63 -53 c19 -3 20 -4 5 -11 -28 -13 -48 1 -48 32 0 40 14
51 18 14 2 -23 9 -32 25 -35z m85 38 c17 -38 15 -47 -9 -40 -14 5 -25 2 -30
-6 -6 -10 -9 -6 -9 13 0 59 28 78 48 33z m54 -15 c5 0 13 10 18 23 8 19 9 17
9 -15 1 -20 -3 -40 -9 -43 -5 -3 -10 -1 -10 6 0 8 -3 9 -13 0 -19 -15 -27 -4
-26 38 0 33 1 34 11 14 6 -13 15 -23 20 -23z m92 24 c3 -9 6 -28 5 -42 0 -15
-3 -21 -6 -14 -2 6 -11 12 -18 12 -7 0 -16 -6 -18 -12 -3 -7 -6 -1 -6 14 -1
35 8 58 24 58 7 0 16 -7 19 -16z m81 6 c3 -5 3 -21 -1 -35 -5 -21 -9 -24 -16
-13 -7 10 -11 10 -15 1 -10 -25 -23 -12 -23 22 0 30 3 35 24 35 14 0 27 -4 31
-10z m75 0 c0 -5 -10 -10 -22 -11 -22 -1 -22 -1 2 -9 l25 -7 -25 -11 c-24 -10
-24 -11 -2 -11 30 -1 28 -21 -3 -21 -22 0 -25 4 -25 40 0 36 3 40 25 40 14 0
25 -4 25 -10z"/>
<path d="M2438 2062 c-4 -15 -14 -22 -30 -22 -22 -1 -22 -1 -5 -15 13 -9 17
-20 12 -35 -6 -19 -5 -20 13 -9 17 10 24 10 37 -1 15 -12 17 -12 13 6 -1 12 3
28 11 37 12 15 11 17 -6 17 -11 0 -24 10 -30 22 l-10 22 -5 -22z"/>
<path d="M2170 1670 c0 -11 7 -20 15 -20 8 0 15 9 15 20 0 11 -7 20 -15 20 -8
0 -15 -9 -15 -20z"/>
<path d="M2395 1680 c-3 -5 1 -10 10 -10 9 0 13 5 10 10 -3 6 -8 10 -10 10 -2
0 -7 -4 -10 -10z"/>
<path d="M2545 1680 c-3 -5 1 -10 10 -10 9 0 13 5 10 10 -3 6 -8 10 -10 10 -2
0 -7 -4 -10 -10z"/>
<path d="M3735 3699 c-39 -34 -96 -81 -127 -106 l-57 -45 75 -89 c94 -110 101
-116 122 -103 28 18 24 30 -34 98 l-57 67 26 27 27 27 59 -65 c58 -64 59 -65
80 -46 20 18 20 18 -34 85 l-55 66 26 22 25 23 57 -63 c31 -35 59 -65 62 -68
3 -2 16 4 29 13 l24 17 -70 83 c-113 132 -97 127 -178 57z"/>
<path d="M985 3446 c-39 -17 -54 -35 -108 -128 l-46 -76 37 -24 c58 -39 253
-150 256 -146 24 32 95 171 101 195 14 66 -37 144 -117 177 -45 19 -83 20
-123 2z m130 -100 c47 -36 51 -57 21 -122 -24 -52 -27 -54 -48 -43 -55 28
-158 94 -158 101 0 14 49 86 62 92 26 11 90 -3 123 -28z"/>
<path d="M3948 3433 c-16 -4 -16 -7 -1 -39 15 -30 21 -34 54 -34 62 0 93 -73
44 -106 -30 -20 -60 -11 -82 24 -9 15 -18 28 -19 30 -1 2 -11 -2 -22 -9 -20
-13 -20 -13 -2 -50 21 -41 61 -76 95 -85 32 -8 90 20 112 52 25 39 21 96 -11
144 -43 66 -101 91 -168 73z"/>
<path d="M3827 3244 c-32 -17 -31 -16 -12 -55 15 -29 16 -29 45 -14 35 18 35
16 12 54 -17 28 -19 28 -45 15z"/>
<path d="M721 2495 c-1 -30 -28 -64 -64 -79 -28 -13 -29 -14 -9 -15 32 -1 72
-44 73 -78 1 -28 1 -28 13 6 14 39 49 71 80 72 16 0 14 3 -11 12 -18 7 -38 18
-45 25 -7 7 -18 27 -25 45 -8 23 -12 26 -12 12z"/>
<path d="M4265 2467 c-9 -32 -49 -67 -79 -67 -14 0 -8 -6 20 -19 30 -14 45
-28 54 -52 l12 -34 9 32 c9 32 30 49 78 64 l26 7 -25 1 c-37 1 -68 27 -78 64
l-9 32 -8 -28z"/>
<path d="M3930 1760 c-11 -21 -20 -44 -20 -49 0 -6 31 -27 70 -46 l70 -35 25
50 c29 58 29 56 10 64 -10 3 -20 -5 -30 -24 -27 -53 -44 -35 -21 21 12 29 -23
32 -36 4 -14 -31 -43 -35 -34 -5 3 11 9 29 12 40 12 37 -25 22 -46 -20z"/>
<path d="M977 1754 c-43 -7 -81 -15 -84 -18 -9 -9 19 -37 32 -32 17 6 35 -36
25 -55 -5 -8 -5 -21 0 -29 7 -12 22 -3 70 45 33 33 60 62 60 65 0 4 -6 13 -12
22 -11 13 -23 13 -91 2z m43 -39 c0 -2 -9 -9 -20 -15 -16 -9 -20 -8 -20 5 0 8
9 15 20 15 11 0 20 -2 20 -5z"/>
<path d="M3816 1564 c-17 -24 -16 -26 16 -66 26 -33 28 -40 13 -34 -74 31 -73
31 -94 11 -12 -10 -21 -21 -21 -25 0 -3 30 -28 66 -55 52 -38 68 -45 75 -34
13 20 12 21 -25 49 -41 30 -39 37 3 16 68 -36 89 -7 40 55 l-33 42 43 -31 c24
-18 47 -29 52 -26 20 12 6 34 -43 71 -75 56 -74 56 -92 27z"/>
<path d="M1206 1379 c-37 -44 -34 -77 13 -122 22 -20 43 -37 48 -37 5 0 21 13
36 28 l27 28 -29 28 c-28 27 -47 23 -35 -8 7 -19 -16 -22 -34 -4 -18 18 -15
42 7 62 28 25 65 17 69 -14 8 -55 42 -62 42 -9 0 42 -39 79 -84 79 -26 0 -40
-7 -60 -31z"/>
<path d="M3590 1305 c-13 -16 -9 -32 27 -111 26 -57 45 -65 51 -23 5 35 22 51
48 45 12 -3 27 0 33 8 9 11 -3 22 -63 55 -41 23 -77 41 -79 41 -3 0 -10 -7
-17 -15z m64 -51 c9 -3 13 -10 10 -15 -8 -14 -21 -11 -28 6 -6 17 -4 18 18 9z"/>
<path d="M1438 1188 c-44 -60 -47 -86 -15 -115 50 -45 77 -38 132 34 32 42 34
48 21 62 -9 8 -17 13 -19 10 -51 -68 -72 -89 -88 -89 -34 0 -32 28 5 78 27 37
33 51 24 60 -18 18 -20 16 -60 -40z"/>
<path d="M3380 1147 c-54 -27 -63 -88 -20 -135 30 -32 65 -38 96 -16 15 11 36
25 48 31 24 15 23 25 -5 65 -20 28 -21 28 -50 11 -31 -18 -34 -39 -5 -37 9 1
16 -4 16 -11 0 -20 -27 -37 -48 -31 -22 7 -44 50 -36 71 6 15 39 29 52 22 4
-3 15 1 25 8 18 13 18 14 -2 24 -25 14 -40 14 -71 -2z"/>
<path d="M1666 1021 c-20 -38 -36 -71 -36 -75 0 -3 21 -17 46 -32 35 -21 48
-24 57 -15 9 10 7 17 -11 31 -12 10 -28 20 -34 22 -6 2 -8 10 -4 16 5 9 14 8
35 -3 16 -8 31 -11 35 -8 13 13 5 30 -21 42 -18 8 -23 15 -16 22 8 8 18 7 33
-1 23 -12 50 -7 50 10 0 5 -22 21 -49 34 l-49 25 -36 -68z"/>
<path d="M1916 948 c-18 -25 -8 -50 29 -74 14 -9 25 -23 25 -30 0 -23 -26 -16
-44 11 -19 29 -46 33 -46 7 0 -54 106 -88 130 -42 15 29 4 56 -31 77 -16 9
-29 21 -29 25 0 13 28 9 37 -5 4 -8 16 -16 26 -20 24 -9 23 27 -3 53 -27 27
-75 26 -94 -2z"/>
<path d="M2925 925 c-68 -67 23 -187 100 -131 11 8 25 12 31 9 20 -7 25 14 14
57 -6 22 -12 40 -14 40 -2 0 -17 -5 -35 -11 -35 -12 -42 -39 -10 -39 18 0 19
-2 9 -15 -19 -22 -47 -18 -66 10 -26 40 4 88 43 66 18 -9 53 -3 53 10 0 14
-37 29 -70 29 -19 0 -40 -9 -55 -25z"/>
<path d="M2193 898 c-16 -8 -23 -20 -23 -39 0 -23 8 -32 40 -49 22 -11 40 -25
40 -30 0 -16 -47 -11 -54 5 -5 15 -46 22 -46 7 0 -21 35 -52 66 -58 41 -8 74
15 74 52 0 17 -11 29 -40 44 -40 20 -53 40 -26 40 7 0 19 -7 26 -15 17 -21 54
-20 46 1 -3 9 -6 17 -6 20 0 5 -57 34 -67 33 -4 0 -18 -5 -30 -11z"/>
<path d="M2722 854 l3 -46 -37 42 c-60 68 -77 47 -62 -77 6 -43 10 -53 25 -53
16 0 19 8 19 43 l1 42 34 -38 c33 -39 72 -48 68 -17 -1 8 -4 45 -8 83 -6 58
-9 67 -27 67 -18 0 -20 -5 -16 -46z"/>
<path d="M2438 803 c-5 -82 0 -100 26 -90 13 5 16 23 16 87 0 72 -2 80 -19 80
-16 0 -19 -10 -23 -77z"/>
</g>
</svg>
